<mxfile host="app.diagrams.net" modified="2024-06-27T07:07:51.136Z" agent="Mozilla/5.0 (Macintosh; Intel Mac OS X 10.15; rv:127.0) Gecko/20100101 Firefox/127.0" version="24.6.3" etag="dnI2XA8V6a-fIPPuxfZ5" type="github">
  <diagram name="第 1 页" id="55UwvBjTM1nuwbsusA_A">
    <mxGraphModel>
      <root>
        <mxCell id="0" />
        <mxCell id="1" parent="0" />
      </root>
    </mxGraphModel>
  </diagram>
</mxfile>
